<svg width="24" height="25" viewBox="0 0 24 25" fill="none" xmlns="http://www.w3.org/2000/svg">
<g clip-path="url(#clip0_1_54)">
<path d="M5.36937 3.12709C5.36937 4.54401 4.32533 5.66262 2.61011 5.66262C1.04404 5.66262 0 4.54401 0 3.12709C0 1.71017 1.04404 0.591553 2.68468 0.591553C4.3999 0.591553 5.36937 1.71017 5.36937 3.12709ZM0.149149 24.1571V7.75071H5.22022V24.1571H0.149149ZM8.27778 12.9709C8.27778 10.9574 8.2032 9.2422 8.12863 7.75071H12.5285L12.7523 10.0625H12.8268C13.498 9.01848 15.1386 7.37784 17.8979 7.37784C21.2538 7.37784 23.7893 9.61508 23.7893 14.4624V24.1571H18.7182V15.059C18.7182 12.9709 17.9725 11.4794 16.1081 11.4794C14.6912 11.4794 13.8709 12.4489 13.498 13.4184C13.4234 13.7167 13.4234 14.1641 13.4234 14.6861V24.1571H8.35235V12.9709H8.27778Z" fill="black"/>
</g>
<defs>
<clipPath id="clip0_1_54">
<rect width="23.8639" height="23.8639" fill="white" transform="translate(0 0.591553)"/>
</clipPath>
</defs>
</svg>
