<svg width="24" height="25" viewBox="0 0 24 25" fill="none" xmlns="http://www.w3.org/2000/svg">
<g clip-path="url(#clip0_1_52)">
<path fill-rule="evenodd" clip-rule="evenodd" d="M22.8198 6.09718C22.1486 4.90399 21.4775 4.68027 20.0606 4.60569C18.6436 4.53112 15.0641 4.45654 11.9319 4.45654C8.7998 4.45654 5.22022 4.53112 3.8033 4.60569C2.38639 4.68027 1.64064 4.90399 1.04404 6.09718C0.372873 7.2158 0 9.22931 0 12.8089C0 16.3139 0.372873 18.3274 1.04404 19.5206C1.71522 20.7138 2.38639 20.9375 3.8033 21.0121C5.22022 21.0867 8.7998 21.1612 11.9319 21.1612C15.0641 21.1612 18.6436 21.0867 20.0606 21.0121C21.4775 20.9375 22.2232 20.7138 22.8198 19.5206C23.491 18.3274 23.8639 16.3139 23.8639 12.8089C23.8639 9.22931 23.491 7.2158 22.8198 6.09718ZM9.54555 17.1342V8.409L16.3318 12.8089L9.54555 17.1342Z" fill="black"/>
</g>
<defs>
<clipPath id="clip0_1_52">
<rect width="23.8639" height="23.8639" fill="white" transform="translate(0 0.727783)"/>
</clipPath>
</defs>
</svg>
